<svg width="20" height="20" viewBox="0 0 20 20" fill="none" xmlns="http://www.w3.org/2000/svg">
<path fill-rule="evenodd" clip-rule="evenodd" d="M5.83464 1.66675C5.55837 1.66675 5.29342 1.77649 5.09807 1.97185C4.90272 2.1672 4.79297 2.43215 4.79297 2.70841V3.75008H3.7513C3.19877 3.75008 2.66886 3.96957 2.27816 4.36028C1.88746 4.75098 1.66797 5.28088 1.66797 5.83342V16.2501C1.66797 16.8026 1.88746 17.3325 2.27816 17.7232C2.66886 18.1139 3.19877 18.3334 3.7513 18.3334H16.2513C16.8038 18.3334 17.3337 18.1139 17.7244 17.7232C18.1151 17.3325 18.3346 16.8026 18.3346 16.2501V5.83342C18.3346 5.28088 18.1151 4.75098 17.7244 4.36028C17.3337 3.96957 16.8038 3.75008 16.2513 3.75008H15.2096V2.70841C15.2096 2.43215 15.0999 2.1672 14.9045 1.97185C14.7092 1.77649 14.4442 1.66675 14.168 1.66675C13.8917 1.66675 13.6268 1.77649 13.4314 1.97185C13.236 2.1672 13.1263 2.43215 13.1263 2.70841V3.75008H6.8763V2.70841C6.8763 2.43215 6.76656 2.1672 6.57121 1.97185C6.37585 1.77649 6.1109 1.66675 5.83464 1.66675ZM5.83464 6.87508C5.55837 6.87508 5.29342 6.98483 5.09807 7.18018C4.90272 7.37553 4.79297 7.64048 4.79297 7.91675C4.79297 8.19302 4.90272 8.45797 5.09807 8.65332C5.29342 8.84867 5.55837 8.95842 5.83464 8.95842H14.168C14.4442 8.95842 14.7092 8.84867 14.9045 8.65332C15.0999 8.45797 15.2096 8.19302 15.2096 7.91675C15.2096 7.64048 15.0999 7.37553 14.9045 7.18018C14.7092 6.98483 14.4442 6.87508 14.168 6.87508H5.83464Z" fill="#7A7A7A"/>
</svg>
