<svg width="24" height="24" viewBox="0 0 24 24" fill="none" xmlns="http://www.w3.org/2000/svg">
<path d="M1 18.4152V20.25C1 21.7668 4.69531 23 9.25 23C13.8047 23 17.5 21.7668 17.5 20.25V18.4152C15.7254 19.6656 12.4812 20.25 9.25 20.25C6.01875 20.25 2.77461 19.6656 1 18.4152ZM14.75 6.5C19.3047 6.5 23 5.2668 23 3.75C23 2.2332 19.3047 1 14.75 1C10.1953 1 6.5 2.2332 6.5 3.75C6.5 5.2668 10.1953 6.5 14.75 6.5ZM1 13.9078V16.125C1 17.6418 4.69531 18.875 9.25 18.875C13.8047 18.875 17.5 17.6418 17.5 16.125V13.9078C15.7254 15.3687 12.477 16.125 9.25 16.125C6.02305 16.125 2.77461 15.3687 1 13.9078ZM18.875 14.3805C21.3371 13.9035 23 13.0184 23 12V10.1652C22.0031 10.8699 20.5379 11.3512 18.875 11.6477V14.3805ZM9.25 7.875C4.69531 7.875 1 9.41328 1 11.3125C1 13.2117 4.69531 14.75 9.25 14.75C13.8047 14.75 17.5 13.2117 17.5 11.3125C17.5 9.41328 13.8047 7.875 9.25 7.875ZM18.673 10.2941C21.2512 9.83008 23 8.91914 23 7.875V6.04023C21.4746 7.11875 18.8535 7.69883 16.0949 7.83633C17.3625 8.45078 18.2949 9.27578 18.673 10.2941Z" fill="#2B2B2B"/>
</svg>
