<svg width="24" height="24" viewBox="0 0 24 24" fill="none" xmlns="http://www.w3.org/2000/svg">
<g clip-path="url(#clip0_8702_149205)">
<path d="M0 13.0698C0 13.4035 0.208244 13.7018 0.521533 13.8168L1.94888 14.3408C2.05624 14.0843 2.21371 13.844 2.42218 13.6355C2.83867 13.219 3.39244 12.9896 3.98147 12.9896C4.57048 12.9896 5.12425 13.219 5.54077 13.6355L9.90915 18.0039C10.5238 18.6185 10.6988 19.5086 10.4346 20.2804C11.0698 20.7456 11.9217 20.8257 12.6411 20.4641L18.6489 17.4435C19.6305 16.9501 20.0363 15.8254 19.704 14.8582C19.7012 14.8582 19.6984 14.8583 19.6957 14.8583C18.896 14.8583 18.1426 14.5069 17.6286 13.894L13.4928 8.96318L12.9088 9.54719C12.4994 9.95656 11.9551 10.1821 11.3761 10.1821C10.7971 10.1821 10.2527 9.95661 9.84334 9.54719L9.64416 9.34799C9.23475 8.93858 9.0093 8.39426 9.0093 7.81525C9.0093 7.23627 9.23477 6.69195 9.64416 6.28254L11.3024 4.62426L10.9563 4.21161C10.3235 3.44978 9.24783 3.22693 8.36443 3.6747L3.85508 5.96025L1.09288 4.84898C0.569937 4.63859 5.05263e-05 5.02357 5.05263e-05 5.58727V13.0698H0Z" fill="white"/>
<path d="M24.0007 12.7457V6.6212C24.0007 6.1817 23.6444 5.82541 23.205 5.82541H19.6807L16.0557 3.20883C15.6826 2.93947 15.2474 2.80737 14.8144 2.80737C14.2675 2.80737 13.724 3.01804 13.3131 3.42895L11.6747 5.06734L10.0521 6.68992C9.43054 7.31147 9.43054 8.31921 10.0521 8.94076L10.2513 9.13996C10.5621 9.45075 10.9694 9.60612 11.3767 9.60612C11.7841 9.60612 12.1914 9.45075 12.5021 9.13996L13.5308 8.11137L18.0705 13.524C18.409 13.9275 18.8783 14.1832 19.3821 14.2588C19.4857 14.2743 19.5908 14.2824 19.6964 14.2824C19.848 14.2824 20.0011 14.2661 20.1527 14.2327L23.376 13.5229C23.7409 13.4426 24.0007 13.1194 24.0007 12.7457Z" fill="white"/>
<path d="M7.19674 20.7152C7.51486 21.0334 7.9318 21.1924 8.34874 21.1924C8.76569 21.1924 9.18266 21.0334 9.50077 20.7152C9.749 20.467 9.8999 20.1585 9.95444 19.8369C10.0397 19.3342 9.88874 18.7992 9.50077 18.4112L5.13239 14.0428C4.81428 13.7247 4.39733 13.5657 3.98039 13.5657C3.56345 13.5657 3.1465 13.7247 2.82839 14.0428C2.68085 14.1904 2.56798 14.3593 2.48888 14.5395C2.22685 15.1364 2.33972 15.8582 2.82839 16.3468L7.19674 20.7152Z" fill="white"/>
</g>
<defs>
<clipPath id="clip0_8702_149205">
<rect width="24" height="24" fill="white"/>
</clipPath>
</defs>
</svg>
