<svg width="24" height="24" viewBox="0 0 24 24" fill="none" xmlns="http://www.w3.org/2000/svg">
<path fill-rule="evenodd" clip-rule="evenodd" d="M21 8.7V21.8923C21.0009 22.0368 20.9759 22.18 20.9265 22.3138C20.8771 22.4477 20.8042 22.5695 20.712 22.6724C20.6198 22.7752 20.5101 22.8571 20.3891 22.9133C20.2682 22.9695 20.1383 22.999 20.007 23H3.993C3.72981 23 3.47739 22.8851 3.2912 22.6805C3.105 22.4759 3.00027 22.1983 3 21.9088V2.0912C3 1.5005 3.447 1 3.998 1H14V7.6C14 7.89174 14.1053 8.17153 14.2929 8.37782C14.4804 8.58411 14.7348 8.7 15 8.7H21ZM21 6.5H16V1.0033L21 6.5ZM6 15C6 14.4477 6.44772 14 7 14H17C17.5523 14 18 14.4477 18 15C18 15.5523 17.5523 16 17 16H7C6.44772 16 6 15.5523 6 15ZM7 18C6.44772 18 6 18.4477 6 19C6 19.5523 6.44772 20 7 20H17C17.5523 20 18 19.5523 18 19C18 18.4477 17.5523 18 17 18H7Z" fill="#2B2B2B"/>
</svg>
