<svg width="24" height="24" viewBox="0 0 24 24" fill="none" xmlns="http://www.w3.org/2000/svg">
<path d="M9.68598 15.0546L8.92156 18L7.04836 17.481L7.81181 14.5367C6.66904 14.1014 5.60696 13.4671 4.6717 12.6612L2.58315 14.8192L1.2105 13.4016L3.30003 11.2446C2.1205 9.7857 1.32797 8.03549 1 6.1653L1.87306 6C4.6758 8.087 8.04471 9.20749 11.5 9.20187C15.0931 9.20187 18.4175 8.01469 21.1269 6L22 6.1643C21.6725 8.03475 20.8803 9.78531 19.7009 11.2446L21.7895 13.4016L20.4169 14.8192L18.3283 12.6612C17.393 13.4671 16.331 14.1014 15.1882 14.5367L15.9516 17.4821L14.0784 18L13.314 15.0546C12.1134 15.2671 10.8866 15.2671 9.68598 15.0546Z" fill="#2B2B2B"/>
</svg>
