<svg width="16" height="16" viewBox="0 0 16 16" fill="none" xmlns="http://www.w3.org/2000/svg">
<path d="M0.00274444 10.652L0 10.6525C0.00102912 10.6545 0.00171532 10.6562 0.00274444 10.6586C0.00411659 10.6758 0.00720409 10.6918 0.00960536 10.7085C0.0099484 10.7114 0.00960517 10.7134 0.00994821 10.7161L0.683847 15.0595C0.765491 15.5869 1.26255 15.9483 1.79358 15.867C2.32494 15.7859 2.68925 15.2929 2.60761 14.7654L2.50281 14.0904C2.62493 14.1903 2.74808 14.2894 2.87586 14.3822C4.60924 15.6453 6.83984 16.2526 9.13391 15.9017C11.4275 15.5517 13.3708 14.3066 14.6412 12.5843C15.2693 11.7352 15.7309 10.7636 16 9.72554L13.3451 9C13.166 9.71346 12.8507 10.3804 12.418 10.9666C11.5583 12.1283 10.2627 12.9605 8.71438 13.1975C7.16607 13.4338 5.67763 13.0269 4.50598 12.1754C4.36173 12.0705 4.22383 11.9572 4.09022 11.839L4.86 11.9131C5.3526 11.9601 5.79392 11.5683 5.84589 11.0374C5.89735 10.5062 5.54007 10.0376 5.04747 9.99043L0.989495 9.60042C0.549033 9.5582 0.151795 9.86803 0.0351618 10.3134C0.0265858 10.3449 0.0221261 10.377 0.016466 10.4096C0.0128641 10.432 0.00600339 10.453 0.00377364 10.4759C0.00308756 10.4829 0.00411677 10.4891 0.00360222 10.4954C0.00137247 10.525 0.002916 10.5551 0.00325904 10.5852C0.00308752 10.6077 0.00120076 10.6303 0.00274444 10.652Z" fill="#7A7A7A"/>
<path d="M15.9974 5.34802L16 5.34768C15.999 5.34547 15.9983 5.34359 15.9973 5.34138C15.9959 5.32436 15.9926 5.30818 15.9904 5.2915C15.9901 5.28895 15.9904 5.28656 15.9901 5.28401L15.3163 0.94075C15.2345 0.413526 14.7378 0.0519423 14.2062 0.133145C13.675 0.214349 13.3107 0.707355 13.3925 1.23458L13.4975 1.90991C13.3748 1.80998 13.2517 1.7109 13.1241 1.61795C11.3907 0.354964 9.15984 -0.252782 6.86623 0.098417C4.57229 0.448254 2.6291 1.69371 1.3588 3.41583C0.730345 4.26514 0.268776 5.23668 0 6.27479L2.655 7C2.83373 6.28671 3.14933 5.61972 3.58174 5.03359C4.44141 3.87189 5.73761 3.03977 7.28578 2.80263C8.83412 2.56669 10.3222 2.97321 11.4943 3.8244C11.6385 3.9296 11.7764 4.04298 11.9099 4.16079L11.1402 4.0869C10.6476 4.03958 10.2063 4.4318 10.1545 4.9626C10.1025 5.49357 10.4602 5.9624 10.9526 6.00956L15.0107 6.39957C15.4511 6.44179 15.8484 6.13196 15.965 5.68662C15.9736 5.6553 15.978 5.62295 15.9834 5.59044C15.9871 5.56797 15.9942 5.54703 15.9962 5.52387C15.9973 5.51741 15.9957 5.51111 15.9962 5.50481C15.9986 5.47502 15.9974 5.44471 15.9967 5.41458C15.9969 5.39245 15.9986 5.36981 15.9974 5.34802Z" fill="#7A7A7A"/>
</svg>
