<svg width="32" height="32" viewBox="0 0 32 32" fill="none" xmlns="http://www.w3.org/2000/svg">
<path fill-rule="evenodd" clip-rule="evenodd" d="M28 16C28 19.1826 26.7357 22.2348 24.4853 24.4853C22.2348 26.7357 19.1826 28 16 28C12.8174 28 9.76516 26.7357 7.51472 24.4853C5.26428 22.2348 4 19.1826 4 16C4 12.8174 5.26428 9.76516 7.51472 7.51472C9.76516 5.26428 12.8174 4 16 4C19.1826 4 22.2348 5.26428 24.4853 7.51472C26.7357 9.76516 28 12.8174 28 16ZM17.5 22C17.5 22.3978 17.342 22.7794 17.0607 23.0607C16.7794 23.342 16.3978 23.5 16 23.5C15.6022 23.5 15.2206 23.342 14.9393 23.0607C14.658 22.7794 14.5 22.3978 14.5 22C14.5 21.6022 14.658 21.2206 14.9393 20.9393C15.2206 20.658 15.6022 20.5 16 20.5C16.3978 20.5 16.7794 20.658 17.0607 20.9393C17.342 21.2206 17.5 21.6022 17.5 22ZM16 8.5C15.6022 8.5 15.2206 8.65804 14.9393 8.93934C14.658 9.22064 14.5 9.60218 14.5 10V16C14.5 16.3978 14.658 16.7794 14.9393 17.0607C15.2206 17.342 15.6022 17.5 16 17.5C16.3978 17.5 16.7794 17.342 17.0607 17.0607C17.342 16.7794 17.5 16.3978 17.5 16V10C17.5 9.60218 17.342 9.22064 17.0607 8.93934C16.7794 8.65804 16.3978 8.5 16 8.5Z" fill="#F4B71A"/>
</svg>
